<svg width="20" height="22" viewBox="0 0 20 22" fill="none" xmlns="http://www.w3.org/2000/svg">
<path fill-rule="evenodd" clip-rule="evenodd" d="M20 10.6365C20 16.4104 15.5228 21.091 10 21.091C4.47715 21.091 0 16.4104 0 10.6365C0 4.8626 4.47715 0.181946 10 0.181946C15.5228 0.181946 20 4.8626 20 10.6365ZM15.2047 9.10803C16.0117 9.10803 16.6667 9.79278 16.6667 10.6365C16.6667 11.2601 16.3041 11.7981 15.8246 12.0426C15.8479 12.1894 15.8596 12.3361 15.8596 12.4951C15.8596 14.8428 13.2515 16.738 10.0234 16.738C6.79532 16.738 4.18713 14.8428 4.18713 12.4951C4.18713 12.3361 4.19883 12.1771 4.22222 12.0304C3.7076 11.7859 3.35672 11.2601 3.35672 10.6365C3.35672 9.79278 4.01169 9.10803 4.81871 9.10803C5.20467 9.10803 5.56725 9.27922 5.82456 9.536C6.8304 8.76566 8.22222 8.28879 9.77777 8.23988L10.5146 4.59607C10.538 4.52271 10.5731 4.46157 10.6316 4.42489C10.6901 4.3882 10.7602 4.37598 10.8304 4.38821L13.2515 4.92622C13.4152 4.55939 13.7661 4.31484 14.1754 4.31484C14.7485 4.31484 15.2164 4.80394 15.2164 5.40309C15.2164 6.00224 14.7485 6.49134 14.1754 6.49134C13.614 6.49134 13.1579 6.02669 13.1345 5.452L10.9708 4.97513L10.3041 8.23988C11.8246 8.30102 13.2047 8.79012 14.1988 9.536C14.4561 9.26699 14.807 9.10803 15.2047 9.10803ZM7.7076 10.6365C7.1345 10.6365 6.66666 11.1256 6.66666 11.7247C6.66666 12.3239 7.1345 12.813 7.7076 12.813C8.2807 12.813 8.74853 12.3239 8.74853 11.7247C8.74853 11.1256 8.2807 10.6365 7.7076 10.6365ZM10.0117 15.393C10.4094 15.393 11.7661 15.3441 12.4795 14.5982C12.5848 14.4882 12.5848 14.317 12.5029 14.1947C12.3977 14.0846 12.2222 14.0846 12.117 14.1947C11.6608 14.6593 10.7134 14.8305 10.0234 14.8305C9.33333 14.8305 8.37426 14.6593 7.92982 14.1947C7.82456 14.0846 7.64912 14.0846 7.54385 14.1947C7.43859 14.3047 7.43859 14.4882 7.54385 14.5982C8.24561 15.3319 9.61403 15.393 10.0117 15.393ZM11.2515 11.7247C11.2515 12.3239 11.7193 12.813 12.2924 12.813C12.8655 12.813 13.3333 12.3239 13.3333 11.7247C13.3333 11.1256 12.8655 10.6365 12.2924 10.6365C11.7193 10.6365 11.2515 11.1256 11.2515 11.7247Z" fill="white"/>
</svg>
