<svg width="20" height="22" viewBox="0 0 20 22" fill="none" xmlns="http://www.w3.org/2000/svg">
<path fill-rule="evenodd" clip-rule="evenodd" d="M14.1149 6.29615C13.0615 5.26667 11.6559 4.70584 10.2015 4.72888C7.54006 4.72888 5.27973 6.56887 4.4738 9.04651C4.04648 10.3449 4.04648 11.7509 4.4738 13.0492H4.47754C5.28721 15.523 7.54379 17.363 10.2052 17.363C11.579 17.363 12.7585 17.0029 13.6726 16.3669V16.3643C14.7484 15.6345 15.4831 14.4859 15.7117 13.1875H10.2015V9.16182H19.8238C19.9438 9.86094 20 10.5754 20 11.2861C20 14.4658 18.8911 17.154 16.9617 18.9748L16.9637 18.9764C15.2731 20.5744 12.9528 21.5002 10.2015 21.5002C6.34428 21.5002 2.81697 19.2722 1.08517 15.742C-0.361728 12.788 -0.361724 9.30777 1.08518 6.35379C2.81698 2.81977 6.34428 0.591769 10.2015 0.591769C12.7354 0.561038 15.1832 1.53674 17.0274 3.31143L14.1149 6.29615Z" fill="white"/>
</svg>
