<svg width="20" height="22" viewBox="0 0 20 22" fill="none" xmlns="http://www.w3.org/2000/svg">
<path d="M10.0059 2.47407C12.6793 2.47407 12.9959 2.48632 14.0473 2.53534C15.0244 2.58027 15.5521 2.75182 15.9038 2.89478C16.369 3.08267 16.7051 3.31141 17.053 3.67494C17.4047 4.04256 17.6197 4.38975 17.7995 4.87581C17.9363 5.24343 18.1004 5.79893 18.1434 6.816C18.1903 7.91884 18.2021 8.2497 18.2021 11.0395C18.2021 13.8334 18.1903 14.1642 18.1434 15.263C18.1004 16.2841 17.9363 16.8355 17.7995 17.2032C17.6197 17.6892 17.4008 18.0405 17.053 18.404C16.7012 18.7716 16.369 18.9963 15.9038 19.1842C15.5521 19.3271 15.0205 19.4987 14.0473 19.5436C12.992 19.5926 12.6754 19.6049 10.0059 19.6049C7.33242 19.6049 7.01583 19.5926 5.96443 19.5436C4.9873 19.4987 4.45964 19.3271 4.10788 19.1842C3.64276 18.9963 3.30662 18.7676 2.95876 18.404C2.607 18.0364 2.39203 17.6892 2.21223 17.2032C2.07543 16.8355 1.91128 16.28 1.86828 15.263C1.82138 14.1601 1.80965 13.8293 1.80965 11.0395C1.80965 8.24561 1.82138 7.91476 1.86828 6.816C1.91128 5.79485 2.07543 5.24343 2.21223 4.87581C2.39203 4.38975 2.6109 4.03847 2.95876 3.67494C3.31053 3.30733 3.64276 3.08267 4.10788 2.89478C4.45964 2.75182 4.99121 2.58027 5.96443 2.53534C7.01583 2.48632 7.33242 2.47407 10.0059 2.47407ZM10.0059 0.591064C7.28943 0.591064 6.94938 0.603318 5.88235 0.652334C4.81923 0.701349 4.08833 0.881071 3.45515 1.1384C2.79461 1.40799 2.23569 1.76335 1.68067 2.34744C1.12175 2.92746 0.781708 3.51156 0.523744 4.19777C0.277506 4.86356 0.105531 5.6233 0.0586281 6.73431C0.0117256 7.85349 0 8.20885 0 11.0477C0 13.8865 0.0117256 14.2418 0.0586281 15.3569C0.105531 16.4679 0.277506 17.2317 0.523744 17.8934C0.781708 18.5837 1.12175 19.1678 1.68067 19.7479C2.23569 20.3279 2.79461 20.6873 3.45124 20.9528C4.08833 21.2101 4.81532 21.3899 5.87844 21.4389C6.94548 21.4879 7.28552 21.5002 10.002 21.5002C12.7184 21.5002 13.0584 21.4879 14.1255 21.4389C15.1886 21.3899 15.9195 21.2101 16.5527 20.9528C17.2093 20.6873 17.7682 20.3279 18.3232 19.7479C18.8782 19.1678 19.2222 18.5837 19.4763 17.8975C19.7225 17.2317 19.8945 16.472 19.9414 15.361C19.9883 14.2459 20 13.8905 20 11.0517C20 8.21294 19.9883 7.85758 19.9414 6.74248C19.8945 5.63147 19.7225 4.86765 19.4763 4.20594C19.23 3.51156 18.89 2.92746 18.3311 2.34744C17.776 1.76743 17.2171 1.40799 16.5605 1.14249C15.9234 0.885156 15.1964 0.705433 14.1333 0.656418C13.0623 0.603318 12.7223 0.591064 10.0059 0.591064Z" fill="white"/>
<path d="M10.0058 5.67639C7.16825 5.67639 4.86612 8.08222 4.86612 11.0476C4.86612 14.0131 7.16825 16.4189 10.0058 16.4189C12.8434 16.4189 15.1456 14.0131 15.1456 11.0476C15.1456 8.08222 12.8434 5.67639 10.0058 5.67639ZM10.0058 14.5318C8.16493 14.5318 6.67186 12.9715 6.67186 11.0476C6.67186 9.1238 8.16493 7.56348 10.0058 7.56348C11.8468 7.56348 13.3398 9.1238 13.3398 11.0476C13.3398 12.9715 11.8468 14.5318 10.0058 14.5318Z" fill="white"/>
<path d="M16.5488 5.46394C16.5488 6.15832 16.0094 6.71791 15.3488 6.71791C14.6844 6.71791 14.1489 6.15424 14.1489 5.46394C14.1489 4.76955 14.6883 4.20996 15.3488 4.20996C16.0094 4.20996 16.5488 4.77364 16.5488 5.46394Z" fill="white"/>
</svg>
