<svg width="20" height="22" viewBox="0 0 20 22" fill="none" xmlns="http://www.w3.org/2000/svg">
<path fill-rule="evenodd" clip-rule="evenodd" d="M20 10.6365C20 16.4104 15.5228 21.091 10 21.091C4.47715 21.091 0 16.4104 0 10.6365C0 4.86261 4.47715 0.181946 10 0.181946C15.5228 0.181946 20 4.86261 20 10.6365ZM10.3583 7.89996C9.3857 8.3229 7.44177 9.1983 4.52657 10.5261C4.05318 10.7229 3.8052 10.9155 3.78263 11.1037C3.74448 11.4219 4.12558 11.5472 4.64455 11.7178C4.71514 11.741 4.78829 11.765 4.86327 11.7905C5.37385 11.964 6.06068 12.167 6.41773 12.1751C6.74161 12.1824 7.1031 12.0428 7.50219 11.7563C10.226 9.83411 11.632 8.86254 11.7202 8.8416C11.7825 8.82682 11.8688 8.80824 11.9273 8.86257C11.9858 8.91691 11.98 9.0198 11.9738 9.04741C11.9361 9.21567 10.4401 10.6697 9.66591 11.4222C9.42457 11.6567 9.25338 11.8231 9.21839 11.8611C9.13999 11.9462 9.06009 12.0268 8.98331 12.1041C8.50896 12.5822 8.15325 12.9407 9.003 13.5261C9.41135 13.8075 9.73812 14.0401 10.0641 14.2722C10.4201 14.5257 10.7752 14.7785 11.2347 15.0933C11.3517 15.1735 11.4635 15.2569 11.5724 15.338C11.9867 15.6468 12.3589 15.9242 12.8188 15.88C13.086 15.8543 13.362 15.5916 13.5022 14.8082C13.8335 12.9567 14.4847 8.945 14.6352 7.29189C14.6484 7.14706 14.6318 6.9617 14.6185 6.88033C14.6051 6.79896 14.5773 6.68303 14.4761 6.59721C14.3563 6.49557 14.1714 6.47414 14.0886 6.47566C13.7125 6.48259 13.1355 6.69236 10.3583 7.89996Z" fill="white"/>
</svg>
