<svg width="20" height="22" viewBox="0 0 20 22" fill="none" xmlns="http://www.w3.org/2000/svg">
<path d="M6.2918 21.5002C13.8371 21.5002 17.9652 13.455 17.9652 6.48034C17.9652 6.25417 17.9613 6.02297 17.9535 5.7968C18.7566 5.04957 19.4496 4.12402 20 3.06364C19.2521 3.49178 18.458 3.7714 17.6449 3.89294C18.5011 3.23263 19.1421 2.19533 19.4492 0.973311C18.6438 1.58747 17.763 2.0207 16.8445 2.25445C16.2257 1.40841 15.4075 0.848235 14.5164 0.660527C13.6253 0.472818 12.711 0.668032 11.9148 1.21599C11.1186 1.76394 10.4848 2.63412 10.1115 3.69198C9.73825 4.74984 9.64619 5.93646 9.84961 7.06839C8.21874 6.96309 6.62328 6.41798 5.16665 5.46842C3.71002 4.51885 2.42474 3.18602 1.39414 1.55633C0.870333 2.71833 0.710047 4.09334 0.945859 5.40193C1.18167 6.71052 1.79589 7.85449 2.66367 8.60133C2.01219 8.57472 1.37498 8.34903 0.804688 7.94292V8.00826C0.804104 9.22768 1.13175 10.4097 1.73192 11.3535C2.3321 12.2972 3.16777 12.9444 4.09687 13.1851C3.49338 13.3975 2.85999 13.4285 2.2457 13.2755C2.50788 14.3243 3.01798 15.2415 3.70481 15.8992C4.39164 16.557 5.22093 16.9224 6.07695 16.9446C4.62369 18.4134 2.82848 19.21 0.980469 19.2063C0.652739 19.2056 0.325333 19.1798 0 19.1289C1.87738 20.6786 4.06128 21.5017 6.2918 21.5002Z" fill="white"/>
</svg>
