<svg width="63" height="63" viewBox="0 0 63 63" fill="none" xmlns="http://www.w3.org/2000/svg">
<circle cx="31.9087" cy="31.8947" r="31" fill="#C4C4C4" fill-opacity="0.5"/>
<path d="M29 25C29 23.2105 30.2105 22 32 22C33.7895 22 35 23.2105 35 25C35 26.7895 33.7895 28 32 28C30.2105 28 29 26.7895 29 25ZM27 25C27 27.7719 29.2281 30 32 30C34.7719 30 37 27.7719 37 25C37 22.2281 34.7719 20 32 20C29.2281 20 27 22.2281 27 25ZM24 36C24 34.4386 27.2456 33 32 33C36.7544 33 40 34.4386 40 36V38H24V36ZM22 36V38C22 39.1053 22.8947 40 24 40H40C41.1228 40 42 39.1228 42 38V36C42 32.9649 37.3158 31 32 31C26.6842 31 22 32.9649 22 36Z" fill="#333333"/>
</svg>
