<svg width="24" height="19" viewBox="0 0 24 19" fill="none" xmlns="http://www.w3.org/2000/svg">
<path d="M23.7609 4.15321C23.7609 4.15321 23.5266 2.41098 22.8047 1.64598C21.8906 0.639136 20.8688 0.634201 20.4 0.574975C17.0438 0.318329 12.0047 0.318329 12.0047 0.318329H11.9953C11.9953 0.318329 6.95625 0.318329 3.6 0.574975C3.13125 0.634201 2.10938 0.639136 1.19531 1.64598C0.473438 2.41098 0.24375 4.15321 0.24375 4.15321C0.24375 4.15321 0 6.20144 0 8.24474V10.1597C0 12.203 0.239062 14.2512 0.239062 14.2512C0.239062 14.2512 0.473437 15.9935 1.19062 16.7585C2.10469 17.7653 3.30469 17.7308 3.83906 17.8393C5.76094 18.0318 12 18.0911 12 18.0911C12 18.0911 17.0438 18.0812 20.4 17.8295C20.8688 17.7702 21.8906 17.7653 22.8047 16.7585C23.5266 15.9935 23.7609 14.2512 23.7609 14.2512C23.7609 14.2512 24 12.2079 24 10.1597V8.24474C24 6.20144 23.7609 4.15321 23.7609 4.15321ZM9.52031 12.4843V5.38215L16.0031 8.94558L9.52031 12.4843Z" fill="white"/>
</svg>
